<svg id="Layer_1" data-name="Layer 1" xmlns="http://www.w3.org/2000/svg" xmlns:xlink="http://www.w3.org/1999/xlink" viewBox="0 0 19 17"><defs><style>.cls-1,.cls-2{fill:#ffe266;fill-opacity:0.3;stroke-linecap:round;stroke-linejoin:round;}.cls-1{stroke:url(#linear-gradient);}.cls-2{stroke:url(#linear-gradient-2);}</style><linearGradient id="linear-gradient" x1="1.03" y1="9.9" x2="18" y2="9.9" gradientTransform="matrix(1, 0, 0, -1, 0, 18)" gradientUnits="userSpaceOnUse"><stop offset="0" stop-color="#fdd50b"/><stop offset="1" stop-color="#fea24c"/></linearGradient><linearGradient id="linear-gradient-2" x1="3.57" y1="4.82" x2="6.97" y2="4.82" xlink:href="#linear-gradient"/></defs><path class="cls-1" d="M18,2.23V14a1.69,1.69,0,0,1-2.38,1.52L7,11.73l-2.55-1.1H2.73A1.7,1.7,0,0,1,1,8.93V7.24a1.7,1.7,0,0,1,1.7-1.7H4.42L15.62.62A1.74,1.74,0,0,1,18,2.23Z"/><path class="cls-2" d="M7,11.73V14a1.7,1.7,0,0,1-1.7,1.69,1.43,1.43,0,0,1-1.19-.51A1.66,1.66,0,0,1,3.57,14v-3.4h.85Z"/></svg>