<svg width="90" height="50" viewBox="0 0 90 50" fill="none" xmlns="http://www.w3.org/2000/svg">
<path d="M35.1308 0C35.8238 0.596712 36.2486 1.57622 36.6062 2.40937C36.8074 2.20671 36.9863 1.99279 37.1651 1.75636C37.534 2.62328 37.6904 3.53524 37.791 4.46971C37.9363 5.91083 37.8804 7.37446 37.6457 8.80432C37.2881 10.9773 36.528 13.0489 35.1979 14.8277C35.332 15.6834 35.4103 16.5503 35.332 17.4172C35.1532 19.6127 34.4043 21.8419 33.7002 23.9248C34.952 24.9944 36.0362 26.2103 36.8521 27.6514C37.791 29.2839 38.3387 31.1867 38.3275 33.0669C38.3499 34.3504 38.1934 35.6902 37.7351 36.8948C37.6569 37.0412 37.5898 37.3452 37.3998 37.3677C36.6509 37.5929 35.8015 37.5816 35.075 37.3114C34.5273 37.1088 34.0578 36.7034 33.8902 36.1292C33.7225 35.6564 33.9125 35.1497 33.9349 34.6431C34.0355 33.1232 33.8343 31.4344 33.0854 30.0946C32.6383 29.2839 32.0124 28.6872 31.1853 28.2819C31.9789 25.6474 32.996 23.0804 33.7896 20.4458C34.0019 19.7478 34.192 19.061 34.259 18.3292C34.3931 17.0007 34.2255 15.7397 34.069 14.4337C35.2091 12.925 35.9356 11.0448 36.3827 9.20964C36.7627 7.59964 36.9527 5.89957 36.841 4.24454C36.6398 4.52601 36.4386 4.79622 36.2262 5.06643C36.1033 4.3909 35.9021 3.74916 35.645 3.10741C35.3879 2.48818 35.2538 1.88021 34.8514 1.32853C33.7784 1.98154 32.7389 2.71335 31.8224 3.56902C30.1793 5.08894 28.9275 7.093 28.3462 9.25467C27.8321 9.13083 27.3179 9.07453 26.7926 9.14208C25.3507 9.33348 24.1324 10.313 23.6183 11.6866C22.8917 11.0561 22.1093 10.5269 21.1816 10.2454C20.0415 9.89642 18.8232 9.98649 17.7167 10.4143C16.1071 11.0223 14.71 12.2045 13.6034 13.5105C12.3069 11.7991 10.6079 10.4594 8.55132 9.81761C6.39411 9.15334 4.00218 8.90565 1.78908 9.38978C1.72202 10.6282 1.84497 11.8667 2.13558 13.0714C1.80026 12.9025 1.46494 12.7449 1.12963 12.5873C1.86732 14.8503 2.94034 17.2146 4.57222 18.9597C4.96343 19.3988 5.41052 19.7928 5.83525 20.2094C5.18697 20.0518 4.62811 19.7928 3.93512 19.8379C3.24213 19.2186 2.64973 18.4643 2.1244 17.6987C1.28611 16.449 0.593117 15.0867 0.0901409 13.6681C-0.301063 12.5535 -0.580495 11.4276 -0.569317 10.2342C-0.267531 10.4594 0.0342546 10.6733 0.358395 10.8422C0.324863 10.0878 0.235445 9.28845 0.33604 8.53411C0.436636 8.02747 0.984321 7.98244 1.39788 7.88111C3.89041 7.2844 6.51706 7.34069 8.99841 7.94866C10.0826 8.19635 11.0103 8.80432 12.0275 9.25467C14.1958 7.02544 17.1355 5.66314 20.1645 5.1565C22.8582 4.71741 25.6413 4.94258 28.1674 6.02342C29.0392 4.43594 30.3917 3.09615 31.8112 2.00405C32.8507 1.23846 33.9572 0.540419 35.1308 0Z" fill="#414141"/>
<path d="M34.1471 3.45642C34.7618 4.526 35.1866 5.71942 35.3877 6.93537C35.4436 7.27313 35.4883 7.62215 35.4548 7.97117C35.2983 10.0315 34.6165 12.0356 33.3758 13.7019C33.1076 13.1277 32.7611 12.6098 32.3587 12.1256C31.6657 11.315 30.9168 10.5719 29.9891 10.0203C30.4362 9.59243 30.8498 9.14208 31.1851 8.62418C31.7663 7.746 32.0457 6.81152 32.4593 5.85453C32.8617 4.93131 33.4094 4.10943 34.1471 3.45642Z" fill="black"/>
<path d="M2.7057 10.2229C3.35398 10.2116 3.99109 10.2003 4.62819 10.358C5.98064 10.6394 7.17661 11.4501 7.97019 12.5872C8.46199 13.2402 8.66318 13.9945 9.22205 14.6025C9.87033 15.3456 10.798 15.7059 11.7705 15.7509C11.0775 17.1695 10.5521 18.6782 10.2727 20.2431C9.21087 20.1643 8.16021 19.7365 7.26602 19.1735C5.88004 18.3066 4.69525 17.0344 3.89049 15.6045C2.98513 13.972 2.5604 12.0805 2.7057 10.2229Z" fill="black"/>
<path d="M49.5943 11.6753C48.499 11.6866 47.4148 11.6753 46.3194 11.6866C46.1741 12.0356 46.0623 12.4071 45.9394 12.7674C44.6204 16.6742 43.3015 20.5922 41.9714 24.499C43.0445 24.499 44.1175 24.499 45.2017 24.499C45.4587 23.5983 45.7158 22.7088 45.9841 21.8081C47.303 21.8081 48.6107 21.8081 49.9296 21.8081C50.1979 22.6976 50.455 23.5983 50.712 24.499C51.7851 24.499 52.8693 24.499 53.9423 24.499C52.4892 20.2094 51.0585 15.9311 49.5943 11.6753ZM46.6994 19.2749C47.1577 17.7212 47.6271 16.1788 47.9624 14.6026C48.2754 16.19 48.7449 17.7325 49.1919 19.2862C48.3536 19.2749 47.5265 19.2749 46.6994 19.2749Z" fill="black"/>
<path d="M63.8675 13.1502C63.141 12.2269 62.0121 11.6978 60.8496 11.6865C59.0165 11.6753 57.1835 11.6865 55.3504 11.6865C55.3504 15.9536 55.3504 20.2206 55.3504 24.4989C56.3899 24.4989 57.4294 24.4989 58.48 24.4989C58.48 23.1817 58.4912 21.8531 58.48 20.5359C59.3519 20.5134 60.2125 20.5584 61.0843 20.5134C62.1127 20.4345 63.1186 19.9504 63.7892 19.1398C64.4822 18.3179 64.8064 17.2596 64.8176 16.19C64.8399 15.0979 64.5493 14.0171 63.8675 13.1502ZM61.4979 16.843C61.3191 17.3609 60.8384 17.7325 60.3019 17.7887C59.6984 17.845 59.0948 17.8 58.4912 17.8113C58.4912 16.6629 58.4912 15.5145 58.4912 14.3661C59.0948 14.3774 59.7095 14.3436 60.3131 14.3886C60.7937 14.4337 61.2408 14.7151 61.442 15.1542C61.6767 15.6721 61.6767 16.3139 61.4979 16.843Z" fill="black"/>
<path d="M66.6284 11.6753C69.2997 11.6753 71.9599 11.6753 74.6313 11.6753C74.6313 12.576 74.6313 13.4767 74.6313 14.3774C73.0106 14.3774 71.3787 14.3774 69.758 14.3774C69.758 15.1542 69.758 15.9311 69.758 16.6967C71.0545 16.6967 72.3511 16.6967 73.6477 16.6967C73.6477 17.5974 73.6477 18.4981 73.6477 19.3988C72.3511 19.3988 71.0545 19.3988 69.758 19.3988C69.758 20.1981 69.758 20.9975 69.758 21.7969C71.4569 21.7969 73.167 21.7969 74.8772 21.7969C74.8772 22.6976 74.8772 23.587 74.8772 24.4877C72.1276 24.5102 69.378 24.4765 66.6284 24.499C66.6284 20.2207 66.6395 15.9423 66.6284 11.6753Z" fill="black"/>
<path d="M27.6643 11.8554C28.9385 11.754 30.2909 12.1706 31.241 13.0488C32.0681 13.8031 32.7946 14.7151 33.2641 15.7396C33.4317 16.0661 33.3423 16.4377 33.2864 16.7867C33.0741 17.7887 32.694 18.7795 32.2805 19.714C31.9787 20.3782 31.6322 21.0763 31.1739 21.6392C30.928 21.9432 30.6039 22.2247 30.2239 22.3485C29.8215 22.4723 29.4191 22.3485 29.095 22.0896C28.5808 21.673 28.1114 21.2001 27.6084 20.7835C27.2283 20.457 26.8036 20.2431 26.5912 19.7815C25.8312 18.2728 25.6635 16.4152 25.7418 14.7489C25.7865 14.1071 25.8535 13.4203 26.0771 12.8124C26.3342 12.1594 27.0272 11.9004 27.6643 11.8554Z" fill="black"/>
<path d="M87.8988 14.0621C87.6976 13.8481 87.53 13.7468 87.2394 13.7018C84.6686 13.2514 82.109 12.8123 79.5382 12.362C79.08 12.2832 78.6552 12.1931 78.1858 12.1931C78.2305 12.5084 78.3311 12.7898 78.4429 13.0938C79.7394 16.7079 81.1589 20.2769 82.7014 23.7896C82.8132 24.0373 82.9361 24.285 83.0591 24.5214C85.4734 21.8418 87.6976 19.0046 89.989 16.2237C89.3183 15.4807 88.5918 14.7826 87.8988 14.0621ZM87.3511 14.9177C87.7759 15.1091 88.1 15.5595 88.4353 15.886C87.4405 16.0661 86.4346 16.3138 85.4286 16.4039C85.7975 15.9986 86.1999 15.6833 86.6134 15.323C86.8034 15.1767 87.0829 14.8952 87.3511 14.9177ZM83.5062 17.3046C83.3944 18.8921 83.182 20.4795 82.9138 22.0445C81.8855 19.5563 80.913 17.0569 79.9071 14.5687C79.8624 14.4336 79.8177 14.3098 79.773 14.1747C79.9518 14.276 80.1306 14.3886 80.2871 14.5124C81.2707 15.323 82.2655 16.1224 83.2603 16.9218C83.372 17.0344 83.5509 17.1357 83.5062 17.3046ZM82.9697 15.537C82.1872 14.8727 81.2931 14.2084 80.6224 13.4316C82.4667 13.6567 84.2997 14.017 86.1328 14.3435C86.0657 14.4786 85.9987 14.6025 85.8869 14.7038C85.3616 15.2217 84.7804 15.7058 84.1768 16.1337C84.0874 16.2012 83.9868 16.2463 83.8862 16.2575C83.5509 16.0436 83.2714 15.7846 82.9697 15.537ZM86.9376 18.4755C85.9428 19.7027 84.9368 20.9186 83.9309 22.1346C83.8638 21.2114 84.065 20.2544 84.1768 19.3424C84.2997 18.7232 84.2997 18.0702 84.4898 17.4735C85.328 17.3271 86.1663 17.192 87.0046 17.0456C87.3847 16.9781 87.7647 16.8993 88.1447 16.8767C87.787 17.4397 87.3511 17.9576 86.9376 18.4755Z" fill="#D6171A"/>
<path d="M18.6668 13.1164C19.2369 12.9701 19.8293 12.9926 20.3434 13.3191C21.1035 13.8145 21.7518 14.5688 22.3106 15.2781C23.1713 16.3815 23.8866 17.6087 24.412 18.9147C24.7696 19.8379 25.0267 20.8287 25.0267 21.8194C25.0267 22.7427 24.7361 23.6659 24.1884 24.3977C23.6519 25.107 22.836 25.5236 21.9641 25.6024C20.6676 25.7375 19.371 25.3659 18.2198 24.7692C17.0797 24.1838 15.9061 23.5533 14.9001 22.7427C14.6542 22.5287 14.3189 22.281 14.2407 21.9433C14.0171 21.0651 14.0171 20.1194 14.0842 19.2187C14.2183 17.9014 14.5089 16.6517 15.3248 15.5821C16.152 14.5013 17.3368 13.4767 18.6668 13.1164Z" fill="black"/>
<path d="M29.2853 15.1542C29.9001 15.0529 30.5931 15.4357 31.0625 15.8185C31.5767 16.235 31.7332 16.9106 31.7332 17.5411C31.6884 18.498 31.2078 19.4325 30.5484 20.108C30.2578 20.4008 29.8777 20.5809 29.4642 20.5359C28.95 20.4796 28.5141 20.0968 28.2458 19.6802C27.6087 18.6894 27.6423 17.4172 28.0558 16.3476C28.2682 15.7734 28.6594 15.2668 29.2853 15.1542Z" fill="#FECB05"/>
<path d="M29.5646 17.0908C29.5087 17.2372 29.4305 17.3948 29.4081 17.5524C29.4193 17.8564 29.6987 18.1266 30.0117 18.0816C30.2352 18.0703 30.3358 17.8902 30.5035 17.7551C30.6488 18.1604 30.727 18.5544 30.5258 18.9597C30.2241 19.6128 29.4305 19.9055 28.7822 19.579C28.078 19.2525 27.821 18.3293 28.2569 17.6763C28.5587 17.2259 29.0281 17.0795 29.5646 17.0908Z" fill="black"/>
<path d="M18.7785 17.9576C19.6727 17.755 20.5333 18.0815 21.271 18.5769C22.1317 19.1623 22.9029 19.9955 23.16 21.0313C23.3612 21.7743 23.2941 22.6187 22.8135 23.238C22.3776 23.8122 21.6511 24.0486 20.9469 23.9923C20.008 23.891 19.0468 23.587 18.2532 23.0691C17.5602 22.6075 16.979 21.9545 16.7778 21.1213C16.6325 20.4571 16.9007 19.8604 17.2025 19.2862C17.5602 18.6557 18.0743 18.1378 18.7785 17.9576Z" fill="#FECB05"/>
<path d="M3.92395 19.8491C4.60576 19.7928 5.1758 20.0631 5.82408 20.2207C6.41647 20.6823 6.98651 21.0876 7.35536 21.7744C8.05953 23.0354 7.94776 24.4202 7.66833 25.7825C7.27712 27.5839 7.09829 29.4416 6.98651 31.2767C6.72944 30.7926 6.47236 30.3198 6.10351 29.9032C5.38817 29.07 4.37104 28.5296 3.28684 28.4058C2.38148 28.2932 1.35318 28.4508 0.514883 28.8336C-0.28988 29.1939 -0.926983 29.8581 -1.18406 30.7138C-1.38525 31.3105 -1.32936 31.896 -1.40761 32.504C-1.42996 32.7066 -1.5082 32.8417 -1.65351 32.9768C-1.8547 31.6708 -1.98882 30.3423 -2 29.0137C-2 26.6269 -1.56409 24.3076 -0.256348 22.281C0.637832 20.8399 2.21383 19.8604 3.92395 19.8491Z" fill="black"/>
<path d="M20.2874 20.0405C20.198 20.2995 20.0527 20.5247 20.1309 20.8061C20.2315 21.1664 20.5668 21.4028 20.9468 21.3465C21.2822 21.324 21.4163 21.0763 21.6175 20.8399C21.7404 21.1551 21.8522 21.4591 21.8298 21.8082C21.8298 22.6188 21.1816 23.3281 20.388 23.4407C19.6503 23.5533 18.9126 23.1592 18.5996 22.4724C18.2643 21.7744 18.4543 20.93 19.0355 20.4346C19.4044 20.1419 19.8291 20.0405 20.2874 20.0405Z" fill="black"/>
<path d="M28.1675 22.7877C28.6481 22.7089 29.3076 22.6076 29.7435 22.8665C30.09 23.1142 29.9 23.5195 29.7994 23.846C29.587 24.409 29.3746 25.152 28.9164 25.5686C28.5028 25.9514 27.9216 25.8388 27.441 25.6362C26.7927 25.3547 26.0885 24.9606 25.6526 24.3977C25.4514 24.1725 25.6973 23.8911 25.8761 23.7447C26.5244 23.2381 27.3739 22.9566 28.1675 22.7877Z" fill="black"/>
<path d="M9.74716 24.4202C10.3172 25.152 11.0102 25.7149 11.7591 26.2328C12.9774 27.0772 14.2963 27.7865 15.6376 28.417C17.6495 29.3402 19.7731 30.1734 21.9527 30.6125C19.8067 30.635 17.6159 31.1416 15.7046 32.1662C14.2516 32.9543 12.9997 34.1139 12.385 35.6901C11.8708 36.9962 11.8708 38.3697 12.1279 39.732C10.239 37.773 9.07652 35.206 8.69649 32.5039C8.31647 29.8694 8.68532 27.1786 9.64656 24.7129C9.66892 24.6228 9.70245 24.5215 9.74716 24.4202Z" fill="#414141"/>
<path d="M31.0735 25.2196C30.9505 25.8051 30.8388 26.3905 30.8052 26.9985C30.7717 27.5502 30.6935 28.0906 30.4699 28.5972C30.157 29.3403 29.5534 29.9258 28.771 30.1509C27.7315 30.4549 26.5803 30.1284 25.7084 29.5317C24.736 28.9012 24.0877 27.7979 23.4283 26.8634C23.3947 27.1448 23.3612 27.4151 23.3277 27.6965C22.9253 27.2912 22.8247 26.3793 23.35 26.0302C23.5959 25.8614 23.8642 25.9739 24.1324 26.0077C23.9871 26.1203 23.8418 26.2329 23.6965 26.3342C24.7248 26.7395 25.9096 26.7958 27.005 26.8071C28.4133 26.8183 29.6987 26.2667 30.8052 25.4223C30.8835 25.3547 30.9841 25.2872 31.0735 25.2196Z" fill="black"/>
<path d="M68.5731 27.2237C69.7802 27.4038 71.0097 27.9217 71.9039 28.7661C71.6804 29.0813 71.4568 29.3853 71.2333 29.7006C69.8138 28.5071 67.8019 28.0118 66.0023 28.4846C64.7728 28.8111 63.7557 29.6443 63.1074 30.7251C62.2468 32.155 62.1685 34.0464 62.7162 35.6114C63.1074 36.7035 63.8786 37.6718 64.8511 38.2797C65.9352 38.9553 67.243 39.1016 68.4837 38.8877C69.6126 38.6963 70.6856 38.0996 71.5127 37.3115C71.7586 37.6042 71.9933 37.8969 72.2392 38.1897C71.7586 38.6963 71.155 39.1016 70.5291 39.4281C68.5507 40.3626 66.0806 40.4414 64.1692 39.293C62.7162 38.4148 61.632 36.9287 61.252 35.2624C61.0061 34.159 60.9949 32.9881 61.252 31.8735C61.6544 30.1059 62.9062 28.5522 64.5157 27.7416C65.7788 27.1336 67.1983 27.021 68.5731 27.2237Z" fill="black"/>
<path d="M54.1658 32.6278C54.0205 31.2654 53.4952 29.9707 52.4893 29.0137C51.3492 27.8878 49.8067 27.3812 48.2307 27.3474C46.7777 27.3474 45.3246 27.3474 43.8604 27.3474C43.8604 31.5469 43.8604 35.7464 43.8604 39.9459C45.2464 39.9459 46.6212 39.9459 47.996 39.9459C49.0355 39.9459 50.0973 39.7658 51.0362 39.3042C52.1539 38.7638 53.0928 37.8405 53.607 36.7034C54.1882 35.4537 54.3 33.9675 54.1658 32.6278ZM52.4334 36.1855C51.9863 37.1875 51.148 37.9756 50.1532 38.3922C49.3932 38.7187 48.5996 38.8313 47.7836 38.8313C46.8895 38.8313 46.0064 38.8313 45.1123 38.8313C45.1123 35.3749 45.1123 31.9072 45.1123 28.4508C46.1518 28.462 47.1912 28.4282 48.2307 28.4733C49.4714 28.5296 50.6674 28.9462 51.5615 29.8356C52.3775 30.6462 52.7799 31.7158 52.8805 32.8529C52.9811 33.9563 52.8916 35.1497 52.4334 36.1855Z" fill="black"/>
<path d="M57.0496 27.3474C57.4631 27.3474 57.8767 27.3474 58.2902 27.3474C58.2902 31.5469 58.2902 35.7352 58.2902 39.9347C57.8767 39.9347 57.4631 39.9347 57.0496 39.9347C57.0496 35.7352 57.0496 31.5469 57.0496 27.3474Z" fill="black"/>
<path d="M74.8884 27.3474C77.2468 27.3474 79.6052 27.3474 81.9636 27.3474C81.9636 27.7189 81.9636 28.0792 81.9636 28.4508C80.0188 28.4508 78.0739 28.4508 76.1403 28.4508C76.1403 29.982 76.1403 31.5131 76.1403 33.0556C77.7274 33.0556 79.3146 33.0556 80.9018 33.0556C80.9018 33.4271 80.9018 33.7874 80.9018 34.1589C79.3146 34.1702 77.7274 34.1589 76.1403 34.1702C76.1403 35.7239 76.1403 37.2889 76.1403 38.8426C78.1857 38.8426 80.2423 38.8426 82.2878 38.8426C82.2878 39.2141 82.2878 39.5744 82.2878 39.9459C79.8288 39.9459 77.3586 39.9459 74.8996 39.9459C74.8884 35.7352 74.8996 31.5357 74.8884 27.3474Z" fill="black"/>
<path d="M3.90179 29.07C4.25946 28.8673 4.6842 29.1938 4.61714 29.5879C4.56125 29.9369 4.15887 30.1171 3.85708 29.9257C3.54412 29.723 3.56647 29.2389 3.90179 29.07Z" fill="black"/>
<path d="M1.42039 29.4979C1.74453 29.329 2.13574 29.5655 2.13574 29.9257C2.14691 30.3085 1.73336 30.5562 1.39804 30.3761C1.06272 30.1847 1.0739 29.678 1.42039 29.4979Z" fill="black"/>
<path d="M-0.792805 30.8714C-0.524551 30.635 -0.0998154 30.7588 0.000779927 31.1078C0.090198 31.4343 -0.155702 31.7608 -0.49102 31.7271C-0.93811 31.7045 -1.11695 31.1641 -0.792805 30.8714Z" fill="black"/>
<path d="M4.4271 30.8489C4.82948 30.68 5.23186 31.0853 5.07538 31.4906C4.94125 31.8284 4.51652 31.9072 4.27062 31.6595C4.01354 31.4006 4.10296 30.9727 4.4271 30.8489Z" fill="black"/>
<path d="M2.09094 31.0853C2.41508 30.9727 2.73922 31.1528 2.78393 31.5019C2.81746 31.8959 2.39273 32.1661 2.04623 31.9747C1.69974 31.7721 1.72209 31.2429 2.09094 31.0853Z" fill="black"/>
<path d="M6.87467 33.0781C6.99762 33.1569 7.00879 33.3708 7.0535 33.506C7.41118 35.1047 8.04828 36.6359 8.9201 38.0094C7.91415 37.8631 6.85231 37.818 5.87989 38.1558C4.87394 38.4823 4.08035 39.4168 3.76739 40.4188C3.44325 41.4771 3.5662 42.603 3.67797 43.6951C2.97381 42.9745 2.35906 42.1527 1.81137 41.3195C0.671291 39.5406 -0.211712 37.5816 -0.848816 35.5663C-0.200535 34.4967 0.727177 33.596 1.74431 32.8867C3.30912 31.8509 5.38809 32.0085 6.87467 33.0781Z" fill="black"/>
<path d="M0.190672 32.3125C0.548344 32.1324 0.973079 32.4476 0.894838 32.8529C0.827775 33.1794 0.458926 33.3596 0.168318 33.1907C-0.178177 33.0105 -0.166999 32.4926 0.190672 32.3125Z" fill="black"/>
<path d="M32.873 37.6379C33.186 38.2684 33.6331 38.8088 34.2366 39.1691C34.9184 39.5744 35.6561 39.6645 36.4274 39.6758C35.5667 41.2182 34.5272 42.5805 33.2754 43.8302C32.5377 43.9541 31.7553 43.8527 31.0623 43.5825C30.224 43.2335 29.721 42.3666 29.6987 41.4772C29.8328 41.3083 30.0228 41.1619 30.1793 41.0156C31.2635 40.0473 32.1577 38.8989 32.873 37.6379Z" fill="black"/>
<path d="M34.7397 37.7279C35.008 37.6491 35.2762 37.7617 35.3656 38.0431C35.4998 38.4597 35.0639 38.8312 34.6838 38.6286C34.3038 38.4259 34.3373 37.8743 34.7397 37.7279Z" fill="black"/>
<path d="M6.93058 38.2122C7.2659 38.0771 7.63475 38.3473 7.60122 38.7075C7.56768 39.1129 7.07588 39.293 6.7741 39.0228C6.51702 38.7751 6.60644 38.3473 6.93058 38.2122Z" fill="black"/>
<path d="M8.26071 39.5407C8.60721 39.4056 8.96488 39.6871 8.92017 40.0473C8.87546 40.4301 8.41719 40.6103 8.12658 40.3626C7.84715 40.1261 7.92539 39.6758 8.26071 39.5407Z" fill="black"/>
<path d="M6.24884 39.991C6.59533 39.9122 6.9083 40.2387 6.81888 40.5877C6.72946 40.9142 6.33825 41.0718 6.07 40.8579C5.73468 40.6327 5.84645 40.0811 6.24884 39.991Z" fill="black"/>
<path d="M4.22584 40.4301C4.5388 40.2499 4.94119 40.4864 4.94119 40.8466C4.95236 41.2294 4.52763 41.4771 4.20349 41.2745C3.89052 41.0943 3.9017 40.599 4.22584 40.4301Z" fill="black"/>
<path d="M10.9657 40.5314C12.0946 41.646 13.4135 42.5467 14.8554 43.2222C13.9165 43.7627 13.1788 44.6071 12.9441 45.6879C12.6647 46.9714 13.0559 48.2661 13.6147 49.4145C11.0775 48.7841 8.69673 47.6357 6.5954 46.0707C6.52834 45.0912 6.66247 44.0892 6.9419 43.1434C7.45605 41.4771 9.24441 40.3625 10.9657 40.5314Z" fill="black"/>
<path d="M5.47764 41.9388C5.82413 41.7812 6.20416 42.0401 6.17063 42.4229C6.1371 42.8395 5.62294 43.0196 5.34351 42.7269C5.10879 42.4905 5.18703 42.0739 5.47764 41.9388Z" fill="black"/>
<path d="M28.2459 42.4905C28.3353 43.1547 28.4806 43.7852 28.883 44.3369C29.3971 45.08 30.1684 45.5191 31.0178 45.778C29.5871 46.8701 27.9888 47.7596 26.3346 48.4576C25.5633 48.0523 24.5797 47.5457 24.1438 46.7575C23.7526 46.0595 23.9203 45.3052 24.2444 44.6071C24.3897 44.3594 24.4344 44.0554 24.7586 44.0104C25.9881 43.6726 27.1617 43.1547 28.2459 42.4905Z" fill="black"/>
<path d="M29.1286 42.7831C29.4639 42.6254 29.8551 42.9632 29.7881 43.3235C29.7322 43.6725 29.3298 43.8527 29.028 43.65C28.7151 43.4136 28.7709 42.9182 29.1286 42.7831Z" fill="black"/>
<path d="M30.2913 43.954C30.6489 43.7513 31.0737 44.0328 31.0178 44.4381C30.9619 44.7984 30.5483 44.9785 30.2465 44.7646C29.9783 44.562 29.9895 44.1341 30.2913 43.954Z" fill="black"/>
<path d="M17.6049 44.1567C19.1585 44.5058 20.7568 44.6071 22.344 44.4495C21.9975 45.2601 21.8522 46.1495 22.0199 47.0277C22.1987 47.9622 22.7017 48.7278 23.3388 49.4033C21.6063 49.8424 19.8179 50.0225 18.0296 49.9775C17.5154 49.4371 17.0683 48.7953 16.7107 48.1311C16.4089 47.2979 16.6213 46.3972 16.8448 45.5641C16.9901 45.0462 17.3366 44.6521 17.6049 44.1567Z" fill="black"/>
<path d="M13.8494 44.8322C14.1736 44.5958 14.6206 44.8322 14.6206 45.2263C14.6318 45.5866 14.2406 45.823 13.9277 45.6654C13.5923 45.519 13.5476 45.0574 13.8494 44.8322Z" fill="black"/>
<path d="M15.5037 44.8098C15.8279 44.6184 16.2302 44.8661 16.2302 45.2377C16.2302 45.6092 15.8279 45.8456 15.5037 45.6655C15.1796 45.4854 15.1796 44.9787 15.5037 44.8098Z" fill="black"/>
<path d="M22.7018 45.1024C23.0483 44.8998 23.473 45.1812 23.4395 45.5753C23.3948 45.9581 22.9477 46.1382 22.6459 45.9018C22.3777 45.6766 22.4112 45.2826 22.7018 45.1024Z" fill="black"/>
<path d="M23.4507 46.7688C23.6631 47.0953 23.3949 47.3092 23.3054 47.6357C23.2943 47.5907 23.2831 47.5456 23.2831 47.5006C22.9254 47.5794 22.5789 47.4443 22.5677 47.0277C22.5789 46.5549 23.1825 46.3747 23.4507 46.7688Z" fill="black"/>
<path d="M13.8382 47.6357C14.1959 47.5006 14.5647 47.7708 14.52 48.1536C14.4641 48.5252 14.017 48.7053 13.7264 48.4576C13.447 48.2325 13.514 47.7821 13.8382 47.6357Z" fill="black"/>
<path d="M15.5259 47.6469C15.8724 47.4893 16.2636 47.7483 16.2301 48.1423C16.1965 48.5026 15.783 48.7053 15.4812 48.4914C15.1682 48.3 15.2018 47.8158 15.5259 47.6469Z" fill="black"/>
<path d="M23.6632 47.8496C23.9873 47.6695 24.3673 47.9059 24.3785 48.2774C24.3785 48.649 23.9761 48.8967 23.652 48.7053C23.339 48.5251 23.339 48.0297 23.6632 47.8496Z" fill="black"/>
</svg>
