<svg width="19" height="17" viewBox="0 0 19 17" fill="none" xmlns="http://www.w3.org/2000/svg">
<path d="M17.9999 2.23034V14.0252C17.9999 15.2131 16.7271 16.0617 15.624 15.5526L6.96878 11.7341L4.42313 10.631H2.72603C1.79263 10.631 1.02893 9.86728 1.02893 8.93388V7.23678C1.02893 6.30337 1.79263 5.53968 2.72603 5.53968H4.42313L15.624 0.618084C16.7271 0.193809 17.9999 0.957512 17.9999 2.23034Z" fill="white" stroke="#C8C4C4" stroke-miterlimit="10" stroke-linecap="round" stroke-linejoin="round"/>
<path d="M6.96878 11.7341V14.0252C6.96878 14.9586 6.20509 15.7223 5.27168 15.7223C4.76255 15.7223 4.33828 15.5526 4.08372 15.2132C3.7443 14.8737 3.57458 14.4495 3.57458 14.0252V10.631H4.42313L6.96878 11.7341Z" fill="white" stroke="#C8C4C4" stroke-miterlimit="10" stroke-linecap="round" stroke-linejoin="round"/>
</svg>
