<svg xmlns="http://www.w3.org/2000/svg" fill="none" viewBox="0 0 74 76">
  <defs/>
  <g filter="url(#filter0_d)" opacity=".1">
    <path fill="#2A118B" d="M59.77 10.98L46.23 3.35C43.58 1.87 40.23 1.07 37 1c-3.23.07-6.58.87-9.23 2.35l-13.54 7.63C9.17 13.84 5 20.14 5 25.08v18.07c0 4.94 4.12 11.27 9.2 14.12l13.6 7.59c5.08 2.85 13.32 2.85 18.4 0l13.6-7.59c5.08-2.85 9.2-9.18 9.2-14.12V25.1c0-4.95-4.17-11.25-9.23-14.11z"/>
    <g style="mix-blend-mode:color-dodge">
      <path fill="url(#paint0_radial)" d="M59.77 10.98L46.23 3.35C43.58 1.87 40.23 1.07 37 1c-3.23.07-6.58.87-9.23 2.35l-13.54 7.63C9.17 13.84 5 20.14 5 25.08v18.07c0 4.94 4.12 11.27 9.2 14.12l13.6 7.59c5.08 2.85 13.32 2.85 18.4 0l13.6-7.59c5.08-2.85 9.2-9.18 9.2-14.12V25.1c0-4.95-4.17-11.25-9.23-14.11z"/>
      <path fill="url(#paint1_linear)" d="M35.89 59.85c0 4.61-3.84 6.2-8.57 3.54L14.69 56.3C9.95 53.65 6.1 47.76 6.1 43.15V26.32c0-4.61 3.84-6.2 8.58-3.54l12.64 7.08c4.73 2.66 8.57 8.55 8.57 13.16l-.01 16.83z"/>
      <path fill="url(#paint2_linear)" d="M35.89 59.85L6.1 26.32c0-4.61 3.84-6.2 8.58-3.54l12.64 7.08c4.73 2.66 8.57 8.55 8.57 13.16l-.01 16.83z"/>
      <path fill="url(#paint3_linear)" d="M46.64 29.87c-4.73 2.66-8.55 8.54-8.55 13.15v16.8c0 4.6 3.83 6.18 8.55 3.52l12.66-7.06c4.73-2.65 8.56-8.54 8.56-13.14v-16.8c0-4.6-3.83-6.18-8.56-3.52l-12.66 7.05z"/>
      <path fill="url(#paint4_linear)" d="M36.97 30.18c2.75.06 5.4-.44 7.35-1.53l14.88-8.38c4.08-2.29 3.57-6.3-1.13-8.95L45.53 4.25a18.7 18.7 0 00-8.56-2.18c-3 .07-6.1.8-8.55 2.18l-12.55 7.07c-4.7 2.65-5.21 6.66-1.13 8.95l14.88 8.38c1.96 1.1 4.6 1.59 7.35 1.53z"/>
      <path fill="url(#paint5_linear)" d="M38.11 59.82l29.72-33.48c0-4.6-3.83-6.18-8.55-3.53l-12.6 7.07c-4.73 2.65-8.56 8.53-8.56 13.13l-.01 16.81z"/>
      <path fill="#58595B" d="M26.13 12.47c1.7 1.04 1.7 2.74 0 3.78a6.42 6.42 0 01-6.14 0c-1.7-1.04-1.7-2.74 0-3.78a6.39 6.39 0 016.14 0zm5.33-7.06c-1.7 1.05-1.7 2.74 0 3.78a6.42 6.42 0 006.14 0c1.7-1.04 1.7-2.73 0-3.78a6.4 6.4 0 00-6.13 0h-.01zm-3.27 12.1c-1.7 1.05-1.7 2.74 0 3.79a6.42 6.42 0 006.14 0c1.68-1.05 1.7-2.74 0-3.79a6.4 6.4 0 00-6.14 0zm11.47-7.06c-1.7 1.05-1.7 2.74 0 3.78a6.42 6.42 0 006.14 0c1.7-1.04 1.7-2.73 0-3.78a6.4 6.4 0 00-6.14 0zm-3.28 12.1c-1.7 1.05-1.7 2.74 0 3.79a6.42 6.42 0 006.15 0c1.7-1.05 1.7-2.74 0-3.79a6.41 6.41 0 00-6.14 0zm11.48-7.05c-1.7 1.04-1.7 2.73 0 3.78a6.42 6.42 0 006.15 0c1.7-1.05 1.7-2.74 0-3.78a6.42 6.42 0 00-6.15 0z"/>
      <path fill="#8FAED6" d="M37.61 5.41a6.42 6.42 0 00-6.14 0 2.5 2.5 0 00-1.25 1.61c-.13-.78.3-1.58 1.25-2.17a6.42 6.42 0 016.14 0c.97.58 1.38 1.4 1.25 2.17a2.42 2.42 0 00-1.25-1.6zM26.14 12.47a6.42 6.42 0 00-6.15 0 2.5 2.5 0 00-1.25 1.6c-.13-.76.29-1.57 1.25-2.16a6.42 6.42 0 016.15 0c.96.6 1.38 1.4 1.24 2.17-.09-.59-.5-1.16-1.24-1.61zM28.2 16.95a6.42 6.42 0 016.14 0c.96.58 1.38 1.4 1.25 2.17a2.42 2.42 0 00-1.25-1.6 6.42 6.42 0 00-6.15 0 2.51 2.51 0 00-1.25 1.6c-.13-.76.29-1.58 1.25-2.17zM45.8 10.45a6.42 6.42 0 00-6.14 0 2.5 2.5 0 00-1.25 1.61c-.13-.77.3-1.57 1.25-2.17a6.42 6.42 0 016.15 0c.96.6 1.38 1.4 1.25 2.17a2.42 2.42 0 00-1.25-1.6zM36.39 22a6.42 6.42 0 016.14 0c.97.59 1.38 1.4 1.25 2.17a2.42 2.42 0 00-1.25-1.62 6.42 6.42 0 00-6.14 0 2.5 2.5 0 00-1.25 1.62c-.13-.78.28-1.58 1.25-2.18zM47.87 14.93a6.42 6.42 0 016.14 0c.96.6 1.38 1.4 1.25 2.17A2.42 2.42 0 0054 15.5a6.42 6.42 0 00-6.14 0c-.74.45-1.15 1.02-1.25 1.6-.14-.77.27-1.57 1.25-2.17z"/>
      <path fill="#414042" d="M45.32 58.47c-1.3-.78-1.3-3.22 0-5.45s3.4-3.4 4.7-2.63c1.29.78 1.3 3.22 0 5.45s-3.4 3.41-4.7 2.63zm4.7-17.17c1.3-2.23 1.3-4.67 0-5.45-1.3-.78-3.4.4-4.7 2.63-1.3 2.24-1.3 4.68 0 5.45 1.3.78 3.4-.4 4.7-2.63zm12.5 7.52c1.3-2.23 1.3-4.67 0-5.45-1.3-.78-3.4.4-4.7 2.63-1.29 2.24-1.3 4.68 0 5.46 1.3.77 3.41-.41 4.7-2.64zm0-14.54c1.3-2.23 1.3-4.67 0-5.45-1.3-.78-3.4.4-4.7 2.63-1.29 2.23-1.3 4.68 0 5.46 1.3.78 3.41-.4 4.7-2.64z"/>
      <path fill="#58595B" d="M45.32 43.94c1.3.77 3.4-.4 4.7-2.64 1.29-2.23 1.3-4.67 0-5.45-1.3-.78-3.4.4-4.7 2.63-1.3 2.24-1.3 4.68 0 5.46zM62.53 28.83c-1.3-.78-3.4.4-4.7 2.63-1.29 2.23-1.3 4.68 0 5.45.13.08.27.14.41.18l5.26-5.92c.03-1.06-.29-1.93-.97-2.34z"/>
      <path fill="#789FCE" d="M62.53 34.28c-1.3 2.23-3.4 3.41-4.7 2.63-.1-.06-.19-.13-.28-.21.15.27.37.5.63.66 1.3.78 3.4-.4 4.7-2.63 1.19-2.06 1.28-4.29.28-5.24.61 1.1.4 3.01-.63 4.8zM50.64 51.05c.62 1.1.41 3-.63 4.78-1.29 2.23-3.4 3.41-4.69 2.64l-.28-.22c.15.27.37.5.63.66 1.3.78 3.4-.4 4.7-2.63 1.19-2.05 1.28-4.28.27-5.23zM50.64 36.51c.62 1.1.41 3.01-.63 4.8-1.29 2.23-3.4 3.4-4.69 2.62-.1-.06-.2-.13-.28-.2.15.26.37.49.63.66 1.3.77 3.4-.4 4.7-2.64 1.19-2.06 1.28-4.3.27-5.24zM63.16 44.03c.61 1.1.4 3.01-.63 4.8-1.3 2.22-3.4 3.4-4.7 2.62-.1-.06-.19-.13-.28-.21.15.27.37.5.63.66 1.3.78 3.4-.4 4.7-2.63 1.19-2.06 1.28-4.3.28-5.24z"/>
      <path fill="#414042" d="M53.93 47.5a7.22 7.22 0 003.31-5.71c0-2.13-1.48-3.02-3.31-2a7.22 7.22 0 00-3.32 5.72c0 2.14 1.49 3.02 3.32 2z"/>
      <path fill="#58595B" d="M53.93 39.8a7.22 7.22 0 00-3.32 5.71v.18l5.47-6.17c-.57-.26-1.33-.19-2.15.28z"/>
      <path fill="#789FCE" d="M56.9 40.27c.24.47.36 1 .34 1.52a7.23 7.23 0 01-3.31 5.72c-1.07.6-2.03.54-2.63-.03.54.97 1.67 1.2 2.98.48a7.21 7.21 0 003.31-5.72c0-.88-.26-1.56-.69-1.97z"/>
      <path fill="#231F20" d="M23.61 55.84c-1.3-2.23-1.3-4.67 0-5.45 1.3-.78 3.4.4 4.7 2.63 1.3 2.23 1.3 4.67 0 5.45-1.3.78-3.4-.4-4.7-2.63zm4.7-11.9c1.3-.78 1.3-3.23 0-5.46s-3.4-3.4-4.7-2.63c-1.3.78-1.3 3.22 0 5.45 1.3 2.24 3.4 3.41 4.7 2.63zm-12.5 7.52c1.3-.78 1.3-3.22 0-5.46-1.3-2.23-3.4-3.4-4.7-2.63-1.3.78-1.3 3.22 0 5.45 1.3 2.24 3.39 3.41 4.68 2.63h.02zm0-14.54c1.3-.78 1.3-3.22 0-5.46-1.3-2.23-3.41-3.41-4.7-2.63-1.3.78-1.3 3.22 0 5.45 1.29 2.23 3.39 3.41 4.68 2.63h.02z"/>
      <path fill="#414042" d="M28.3 43.94c-1.29.77-3.39-.4-4.69-2.64-1.3-2.23-1.3-4.67 0-5.45 1.3-.78 3.4.4 4.7 2.63 1.3 2.24 1.3 4.68 0 5.46zM11.1 28.83c1.3-.78 3.4.4 4.7 2.63 1.29 2.23 1.3 4.68 0 5.45-.13.08-.27.14-.41.18l-5.26-5.92c-.03-1.06.29-1.93.97-2.34z"/>
      <path fill="#6092C6" d="M11.1 34.28c1.3 2.24 3.4 3.41 4.7 2.63.1-.05.2-.13.3-.2-.16.26-.37.5-.64.66-1.3.77-3.4-.4-4.7-2.64-1.18-2.06-1.28-4.29-.27-5.24-.63 1.1-.43 3.01.61 4.8zM22.99 51.05c-.62 1.1-.4 3 .62 4.78 1.3 2.23 3.4 3.41 4.7 2.64.1-.07.2-.14.28-.22-.15.27-.37.5-.63.66-1.3.78-3.4-.4-4.7-2.63-1.19-2.05-1.3-4.28-.27-5.23zM22.99 36.52c-.62 1.1-.41 3 .62 4.78 1.3 2.24 3.4 3.41 4.7 2.64.1-.07.2-.14.28-.22-.15.27-.37.5-.63.67-1.3.77-3.4-.4-4.7-2.64-1.19-2.06-1.3-4.3-.27-5.23zM10.47 44.03c-.6 1.1-.4 3.01.63 4.8 1.3 2.22 3.4 3.4 4.7 2.62l.3-.21c-.16.28-.38.5-.65.67-1.3.78-3.4-.4-4.7-2.63-1.19-2.07-1.28-4.3-.28-5.25z"/>
    </g>
  </g>
  <defs>
    <linearGradient id="paint1_linear" x1="21" x2="35.35" y1="59.91" y2="34.46" gradientUnits="userSpaceOnUse">
      <stop stop-color="#93BBE4"/>
      <stop offset="1" stop-color="#C2D6EF"/>
    </linearGradient>
    <linearGradient id="paint2_linear" x1="19.86" x2="31.02" y1="44.19" y2="32.85" gradientUnits="userSpaceOnUse">
      <stop stop-color="#B9D1ED"/>
      <stop offset="1" stop-color="#D1E0F3"/>
    </linearGradient>
    <linearGradient id="paint3_linear" x1="52.97" x2="38.64" y1="58.52" y2="33.09" gradientUnits="userSpaceOnUse">
      <stop stop-color="#ABC9E9"/>
      <stop offset="1" stop-color="#DCE6F5"/>
    </linearGradient>
    <linearGradient id="paint4_linear" x1="36.97" x2="36.97" y1="2.07" y2="30.18" gradientUnits="userSpaceOnUse">
      <stop stop-color="#C2D6EF"/>
      <stop offset="1" stop-color="#fff"/>
    </linearGradient>
    <linearGradient id="paint5_linear" x1="57.1" x2="46.38" y1="49.16" y2="30.04" gradientUnits="userSpaceOnUse">
      <stop stop-color="#C2D6EF"/>
      <stop offset="1" stop-color="#E0E9F6"/>
    </linearGradient>
    <radialGradient id="paint0_radial" cx="0" cy="0" r="1" gradientTransform="matrix(33.0151 0 0 32.0841 37.06 34.06)" gradientUnits="userSpaceOnUse">
      <stop stop-color="#fff"/>
      <stop offset=".14" stop-color="#fff"/>
      <stop offset=".33" stop-color="#E7F1F9"/>
      <stop offset=".55" stop-color="#CADFF2"/>
      <stop offset=".8" stop-color="#A2C7E8"/>
      <stop offset="1" stop-color="#7BAFDE"/>
    </radialGradient>
    <filter id="filter0_d" width="74" height="76" x="0" y="0" color-interpolation-filters="sRGB" filterUnits="userSpaceOnUse">
      <feFlood flood-opacity="0" result="BackgroundImageFix"/>
      <feColorMatrix in="SourceAlpha" values="0 0 0 0 0 0 0 0 0 0 0 0 0 0 0 0 0 0 127 0"/>
      <feOffset dy="4"/>
      <feGaussianBlur stdDeviation="2.5"/>
      <feColorMatrix values="0 0 0 0 0.566198 0 0 0 0 0.293507 0 0 0 0 0.891667 0 0 0 0.6 0"/>
      <feBlend in2="BackgroundImageFix" result="effect1_dropShadow"/>
      <feBlend in="SourceGraphic" in2="effect1_dropShadow" result="shape"/>
    </filter>
  </defs>
</svg>
