<svg id="Layer_1" data-name="Layer 1" xmlns="http://www.w3.org/2000/svg" xmlns:xlink="http://www.w3.org/1999/xlink" viewBox="0 0 18 18"><defs><style>.cls-1{fill:#ffe266;fill-opacity:0.3;stroke-linecap:round;stroke-linejoin:round;stroke:url(#linear-gradient);}.cls-2{fill:url(#linear-gradient-2);}.cls-3{fill:url(#linear-gradient-3);}.cls-4{fill:url(#linear-gradient-4);}</style><linearGradient id="linear-gradient" x1="0.7" y1="11" x2="17.36" y2="11" gradientTransform="matrix(1, 0, 0, -1, 0, 20)" gradientUnits="userSpaceOnUse"><stop offset="0" stop-color="#fdd50b"/><stop offset="1" stop-color="#fea24c"/></linearGradient><linearGradient id="linear-gradient-2" x1="4.03" y1="11" x2="5.7" y2="11" xlink:href="#linear-gradient"/><linearGradient id="linear-gradient-3" x1="12.36" y1="11" x2="14.03" y2="11" xlink:href="#linear-gradient"/><linearGradient id="linear-gradient-4" x1="8.2" y1="11" x2="9.86" y2="11" xlink:href="#linear-gradient"/></defs><path class="cls-1" d="M9,17.33H2.36A1.67,1.67,0,0,1,.7,15.67V9A8.33,8.33,0,0,1,17.36,9,8.24,8.24,0,0,1,9,17.33Z"/><path class="cls-2" d="M4.86,9.83a.83.83,0,1,0,0-1.66.83.83,0,1,0,0,1.66Z"/><path class="cls-3" d="M13.2,9.83a.83.83,0,0,0,0-1.66.83.83,0,1,0,0,1.66Z"/><path class="cls-4" d="M9,9.83A.83.83,0,1,0,8.2,9,.83.83,0,0,0,9,9.83Z"/></svg>