<svg width="40" height="40" viewBox="0 0 40 40" fill="none" xmlns="http://www.w3.org/2000/svg">
<g id="Iconly/Broken/Close Square">
<g id="Close Square">
<path id="Close Square_2" fill-rule="evenodd" clip-rule="evenodd" d="M35.4068 19.2965C36.1018 19.2965 36.6668 18.7315 36.6668 18.0365V13.7548C36.6668 7.3198 32.6502 3.33313 26.2552 3.33313H13.7552C7.32016 3.33313 3.3335 7.3198 3.3335 13.7598V26.2598C3.3335 32.6798 7.32016 36.6665 13.7552 36.6665H26.2602C32.6802 36.6665 36.6668 32.6798 36.6618 26.2548C36.6618 25.5515 36.0902 24.9798 35.3868 24.9798C34.6818 24.9798 34.1118 25.5515 34.1118 26.2548C34.1118 31.3115 31.3268 34.1115 26.2552 34.1115H13.7552C8.6835 34.1115 5.8835 31.3115 5.8835 26.2548V13.7548C5.8835 8.68313 8.6835 5.88313 13.7602 5.88313H26.2602C31.3335 5.88313 34.1168 8.66646 34.1168 13.7548V17.9915V17.9948C34.1185 18.6981 34.6885 19.2665 35.3918 19.2665V19.2965H35.4068ZM16.3583 21.9088L15.2183 23.0488C14.71 23.5321 14.6816 24.3338 15.155 24.8521L15.1916 24.8788C15.6783 25.3655 16.4616 25.3788 16.9633 24.9088L18.0983 23.7738C18.6133 23.2938 18.6416 22.4871 18.1616 21.9705C17.68 21.4571 16.8733 21.4271 16.3583 21.9088ZM25.2376 24.672C24.7476 25.1603 23.9559 25.1703 23.4542 24.692L23.3909 24.6303L15.4242 16.6653C14.9376 16.1487 14.9276 15.3453 15.4026 14.8187C15.8892 14.3203 16.6859 14.3103 17.1842 14.797C17.1892 14.8003 17.1926 14.8037 17.1976 14.8087L20.3059 17.9186L23.1342 15.0887C23.6426 14.6037 24.4442 14.6087 24.9475 15.1003C25.0375 15.1903 25.1142 15.292 25.1726 15.4053C25.4609 15.907 25.3776 16.537 24.9692 16.947L22.1526 19.762L25.2159 22.827C25.7326 23.3153 25.7526 24.1303 25.2626 24.6453C25.2588 24.651 25.2539 24.6556 25.2488 24.6604C25.245 24.664 25.2411 24.6677 25.2376 24.672Z" fill="url(#paint0_linear)"/>
</g>
</g>
<defs>
<linearGradient id="paint0_linear" x1="5.41683" y1="6.45813" x2="34.0627" y2="34.3227" gradientUnits="userSpaceOnUse">
<stop stop-color="#FF9E2C"/>
<stop offset="1" stop-color="#F07129"/>
</linearGradient>
</defs>
</svg>
