<svg width="22" height="21" viewBox="0 0 22 21" fill="none" xmlns="http://www.w3.org/2000/svg">
<path d="M19.4117 4.67364L19.8691 3.1382C19.9535 2.85533 20.1443 2.6184 20.3994 2.47955C20.6545 2.3407 20.953 2.31129 21.2293 2.39779C21.5055 2.48429 21.7369 2.67962 21.8725 2.94081C22.0081 3.20199 22.0369 3.50764 21.9524 3.79051L20.6782 8.05564C20.5938 8.33829 20.4032 8.57506 20.1483 8.71389C19.8935 8.85273 19.5952 8.88228 19.3191 8.79605L15.1535 7.49142C15.0139 7.45117 14.8835 7.38275 14.77 7.29019C14.6565 7.19763 14.5623 7.08279 14.4927 6.95241C14.4232 6.82203 14.3798 6.67874 14.3652 6.53095C14.3505 6.38317 14.3648 6.23387 14.4072 6.09182C14.4497 5.94978 14.5194 5.81784 14.6123 5.70377C14.7053 5.58971 14.8195 5.4958 14.9484 5.42757C15.0773 5.35934 15.2182 5.31817 15.3628 5.30646C15.5074 5.29476 15.6529 5.31276 15.7906 5.35941L17.6115 5.92921C16.8065 4.6791 15.6837 3.67753 14.364 3.03236C13.0443 2.38719 11.5778 2.12286 10.1222 2.26786C8.6667 2.41285 7.27738 2.96167 6.1039 3.8552C4.93041 4.74873 4.01723 5.95312 3.46271 7.33865L3.17956 8.04449C3.12806 8.18382 3.04982 8.31118 2.94945 8.41903C2.84908 8.52689 2.72863 8.61306 2.59519 8.67245C2.46176 8.73184 2.31805 8.76326 2.17256 8.76484C2.02707 8.76642 1.88275 8.73813 1.74812 8.68165C1.61348 8.62517 1.49126 8.54164 1.38868 8.43598C1.28611 8.33033 1.20524 8.20471 1.15087 8.06653C1.0965 7.92834 1.06972 7.7804 1.07212 7.63145C1.07452 7.48249 1.10605 7.33554 1.16484 7.19927L1.44799 6.49343C2.15176 4.73528 3.30994 3.20661 4.79817 2.07155C6.2864 0.936484 8.04848 0.23791 9.8952 0.0508301C11.7419 -0.13625 13.6035 0.195231 15.2801 1.00968C16.9568 1.82413 18.385 3.09079 19.4117 4.67364ZM2.50762 16.5079L2.15151 17.9697C2.11964 18.1147 2.0598 18.2517 1.97549 18.3726C1.89118 18.4936 1.78411 18.5961 1.66057 18.6741C1.53702 18.7521 1.3995 18.804 1.25608 18.8268C1.11266 18.8496 0.96624 18.8428 0.82542 18.8068C0.6846 18.7708 0.552223 18.7064 0.436068 18.6173C0.319914 18.5282 0.222325 18.4162 0.149038 18.288C0.0757513 18.1597 0.028244 18.0177 0.00930848 17.8704C-0.00962708 17.7231 0.000391133 17.5733 0.0387744 17.43L1.09187 13.1036C1.1274 12.9562 1.19192 12.8179 1.28148 12.697C1.37103 12.5761 1.48375 12.4752 1.61271 12.4005C1.74168 12.3257 1.88418 12.2787 2.03151 12.2624C2.17883 12.246 2.32787 12.2605 2.46951 12.3052L6.63834 13.3689C6.91865 13.4405 7.15971 13.6232 7.3085 13.8767C7.45728 14.1303 7.5016 14.4339 7.4317 14.721C7.36181 15.008 7.18342 15.2548 6.93579 15.4071C6.68815 15.5595 6.39156 15.6049 6.11125 15.5333L4.16623 15.0371C4.99772 16.3404 6.17306 17.3757 7.5559 18.0228C8.93874 18.6699 10.4724 18.9024 11.9791 18.6932C13.4857 18.484 14.9036 17.8418 16.0682 16.841C17.2328 15.8402 18.0964 14.5219 18.5589 13.0389C18.6024 12.8993 18.6723 12.7699 18.7646 12.658C18.857 12.5461 18.9699 12.4539 19.097 12.3867C19.2241 12.3195 19.3629 12.2786 19.5055 12.2664C19.648 12.2541 19.7916 12.2707 19.9279 12.3152C20.0642 12.3597 20.1905 12.4313 20.2998 12.5258C20.4091 12.6203 20.4991 12.736 20.5648 12.8661C20.6304 12.9963 20.6703 13.1384 20.6823 13.2844C20.6943 13.4303 20.6781 13.5773 20.6346 13.7168C20.1813 15.1731 19.4217 16.5099 18.4095 17.6332C17.3972 18.7566 16.1569 19.6391 14.7756 20.2188C12.6235 21.1215 10.235 21.2458 8.0046 20.5711C5.77416 19.8965 3.83512 18.4631 2.50762 16.5079Z" fill="url(#paint0_linear)"/>
<defs>
<linearGradient id="paint0_linear" x1="0" y1="10.6276" x2="22" y2="10.6276" gradientUnits="userSpaceOnUse">
<stop stop-color="#FDD50B"/>
<stop offset="1" stop-color="#FEA24C"/>
</linearGradient>
</defs>
</svg>
